<svg width="107" height="18" viewBox="0 0 107 18" fill="none" xmlns="http://www.w3.org/2000/svg">
<path fill-rule="evenodd" clip-rule="evenodd" d="M87.5638 12.957C86.6825 12.3254 86.6232 11.1348 87.4771 10.5552C86.924 9.94842 86.8554 9.40064 86.8554 8.7282C86.8554 7.3662 88.1061 6.6717 88.9046 6.49047C89.8757 6.2502 92.0466 6.27394 93.4114 6.28886C93.6854 6.29185 93.9269 6.29449 94.1197 6.29457C94.5129 6.29469 94.6719 6.43601 94.6721 6.78297C94.6721 6.95081 94.6711 7.11854 94.6695 7.28638C94.6682 7.40352 94.6095 7.48545 94.4819 7.5297C94.3525 7.57458 94.224 7.62134 94.0903 7.66998L94.0902 7.66999L94.0902 7.67C94.032 7.69119 93.9728 7.71273 93.9121 7.73463C94.2219 8.18781 94.3658 8.65778 94.2659 9.3166C94.0664 10.6331 93.0326 11.07 92.4468 11.222C91.3582 11.5047 90.2551 11.5289 89.1483 11.2953C88.9478 11.2563 88.7487 11.2446 88.6479 11.4289C88.5581 11.5926 88.5112 11.802 88.7844 11.9011C89.7044 12.274 91.0862 12.5306 92.4094 12.7363C94.0997 13.0001 94.3828 13.6604 94.4819 14.4073C94.5849 15.1846 94.3828 16.1106 92.9849 16.5899C91.7689 16.9542 89.7794 16.9983 88.39 16.5711C86.44 15.9523 86.3413 13.8804 87.5638 12.957ZM92.1603 9.46109C92.2793 9.1923 92.2785 8.90826 92.2354 8.62515C92.1644 8.15777 91.855 7.87842 91.3441 7.7682C90.8834 7.66855 90.4161 7.66808 89.9527 7.74414C89.5235 7.81468 89.1424 7.97701 88.9987 8.37092C88.7054 9.16589 89.0384 9.76262 89.6178 9.93457C90.2594 10.1147 91.7688 10.2028 92.1603 9.46109ZM91.9519 14.1533C92.4239 14.3332 92.5269 14.5316 92.3869 14.9771C92.1851 15.6191 90.3315 15.602 89.3944 15.355C88.9817 15.2166 88.8112 14.989 88.7943 14.6042C88.7787 14.058 88.9977 13.7142 89.2252 13.5546C89.2528 13.5353 89.2886 13.5297 89.323 13.5372C89.4816 13.572 89.661 13.6106 89.8502 13.6512C90.6598 13.8253 91.6482 14.0377 91.9519 14.1533Z" fill="#110B3E"/>
<path fill-rule="evenodd" clip-rule="evenodd" d="M83.3343 13.8822C84.5041 13.4012 85.315 12.423 85.315 10.7904C85.315 10.7654 85.315 10.7317 85.3151 10.6908C85.3159 10.3266 85.3178 9.39767 85.2815 9.08644C85.2116 8.48854 84.9149 7.35647 83.6338 6.65481C82.8728 6.2379 80.9079 5.84035 79.2357 6.82066C78.3691 7.39861 77.9653 8.20097 77.8701 9.12694C77.8314 9.50287 77.8316 9.88196 77.8318 10.261C77.8318 10.4046 77.8319 10.5483 77.8298 10.6918C77.8298 12.2862 78.5327 13.2936 79.8169 13.8793C80.8525 14.3206 82.376 14.2762 83.3343 13.8822ZM82.8091 8.27257C83.1263 8.63585 83.2257 9.06532 83.2436 9.51204C83.2529 9.74655 83.2353 11.0726 83.1403 11.4867C83.0238 11.9946 82.7025 12.4018 82.1034 12.5517C81.5005 12.7027 80.9234 12.6437 80.4533 12.2377C80.1567 11.9814 79.9895 11.6484 79.9606 11.291C79.8424 10.4864 79.8091 9.2638 80.1123 8.61953C80.3416 8.14663 80.7371 7.85155 81.3223 7.79275C81.9023 7.73441 82.4314 7.84017 82.8091 8.27257Z" fill="#110B3E"/>
<path fill-rule="evenodd" clip-rule="evenodd" d="M70.4843 13.8822C71.6542 13.4012 72.465 12.423 72.465 10.7904C72.465 10.7654 72.4651 10.7317 72.4651 10.6908C72.4659 10.3266 72.4678 9.39767 72.4316 9.08644C72.3618 8.48854 72.0649 7.35647 70.7838 6.65481C70.0228 6.2379 68.0581 5.84035 66.3857 6.82066C65.5191 7.39861 65.1153 8.20097 65.0201 9.12694C64.9814 9.50337 64.9816 9.88295 64.9818 10.2625C64.9819 10.4056 64.982 10.5488 64.98 10.6918C64.98 12.2862 65.6827 13.2936 66.9669 13.8793C68.0025 14.3206 69.526 14.2762 70.4843 13.8822ZM69.9591 8.27257C70.2764 8.63585 70.3758 9.06532 70.3936 9.51204C70.4029 9.74655 70.3853 11.0726 70.2904 11.4867C70.1738 11.9946 69.8526 12.4018 69.2535 12.5517C68.6505 12.7027 68.0734 12.6437 67.6034 12.2377C67.3067 11.9814 67.1396 11.6484 67.1107 11.291C66.9925 10.4864 66.9592 9.2638 67.2624 8.61953C67.4916 8.14663 67.8872 7.85155 68.4723 7.79275C69.0524 7.73441 69.5814 7.84017 69.9591 8.27257Z" fill="#110B3E"/>
<path fill-rule="evenodd" clip-rule="evenodd" d="M104.676 9.37548C104.677 9.41609 104.64 9.44943 104.593 9.44955C104.535 9.44967 104.477 9.44975 104.419 9.44983C103.253 9.45151 102.21 9.45301 101.347 9.76704C100.652 10.0197 100.163 10.4371 99.9722 11.0881C99.8158 11.6215 99.8289 12.1609 99.9815 12.6945C100.181 13.3921 100.679 13.8498 101.458 14.0565C102.828 14.4086 104.282 13.9978 104.786 13.6041C104.787 13.6169 104.788 13.6284 104.788 13.6392C104.79 13.661 104.791 13.6795 104.791 13.6981C104.796 14.017 104.893 14.0904 105.276 14.0853L106.184 14.0838C106.639 14.098 106.75 14.029 106.75 13.6663C106.75 13.2745 106.756 12.7827 106.763 12.2541C106.782 10.6617 106.805 8.73587 106.683 8.20644C106.554 7.52567 106.178 6.98235 105.485 6.62999C104.65 6.13456 102.956 6.07528 100.755 6.40956C100.543 6.44161 100.387 6.60311 100.387 6.79267L100.387 6.7928C100.386 7.04206 100.386 7.2912 100.387 7.54046C100.388 7.76981 100.476 7.84681 100.732 7.83225C101.574 7.72802 103.266 7.73354 103.823 7.76441C104.186 7.78448 104.472 7.96125 104.589 8.28344C104.688 8.55896 104.683 8.84156 104.678 9.13046C104.677 9.21164 104.675 9.29332 104.676 9.37548ZM104.579 10.6695C104.633 10.6699 104.677 10.7092 104.677 10.7574V12.042L104.677 12.0523C104.677 12.3682 104.677 12.377 104.345 12.4994C103.801 12.6999 103.161 12.785 102.646 12.7111C102.219 12.6482 102.014 12.4804 101.974 12.1056C101.949 11.8754 101.964 11.6361 102.007 11.4073C102.075 11.0407 102.366 10.8415 102.756 10.7536C103.158 10.6593 103.93 10.6649 104.438 10.6686C104.488 10.669 104.535 10.6693 104.579 10.6695Z" fill="#110B3E"/>
<path fill-rule="evenodd" clip-rule="evenodd" d="M74.1387 3.83412C74.1562 3.68447 74.2637 3.58705 74.4362 3.5854C74.9256 3.58059 75.415 3.58259 75.9045 3.58376C76.0565 3.58423 76.1468 3.66005 76.1808 3.78506C76.1969 3.84457 76.1123 8.51065 76.1991 13.6742C76.1991 14.0071 76.1088 14.0856 75.7262 14.0856C75.3455 14.0856 74.9649 14.0857 74.5842 14.0856C74.2343 14.0854 74.1324 13.9952 74.1323 13.6819C74.1317 12.551 74.1319 3.89105 74.1387 3.83412Z" fill="#110B3E"/>
<path fill-rule="evenodd" clip-rule="evenodd" d="M98.1944 13.6953C98.1944 13.9912 98.089 14.0854 97.7586 14.0855C97.3507 14.0856 96.9428 14.0861 96.535 14.0853C96.2481 14.0848 96.1312 13.9841 96.1304 13.7281C96.1282 13.0284 96.1296 8.35096 96.1296 6.71183C96.1296 6.37285 96.2204 6.29445 96.6119 6.29433C96.998 6.29433 97.3841 6.29374 97.7702 6.29457C98.0796 6.29527 98.1944 6.39574 98.1944 6.66465C98.0423 10.4032 98.1947 12.5259 98.1944 13.6953Z" fill="#110B3E"/>
<path fill-rule="evenodd" clip-rule="evenodd" d="M97.923 3.49872C98.1798 3.50071 98.2917 3.59402 98.2945 3.82173C98.2991 4.19557 98.2997 4.56952 98.2942 4.94347C98.291 5.16073 98.1766 5.2578 97.9329 5.25909C97.4596 5.26156 96.9864 5.26179 96.5132 5.25909C96.2592 5.25756 96.1334 5.14676 96.1316 4.92281C96.1282 4.55849 96.1285 4.19416 96.1314 3.82983C96.1332 3.61609 96.2626 3.50189 96.5032 3.49907C96.7425 3.49625 97.6891 3.49684 97.923 3.49872Z" fill="#110B3E"/>
<path fill-rule="evenodd" clip-rule="evenodd" d="M61.2587 3.8365C61.2465 3.8973 61.2399 6.25323 61.2399 6.31426C61.1803 6.31008 61.1207 6.30582 61.0611 6.30156C59.8037 6.2116 58.5648 6.12298 57.3474 6.82507C55.4092 7.89435 55.9775 11.4596 56.2018 12.1335C56.6579 13.5283 58.2559 14.218 59.5187 14.218C60.6594 14.2402 61.7815 14.1078 62.8869 13.8622C63.263 13.7788 63.3161 13.7175 63.3161 13.3777C63.3161 10.257 63.3107 3.89108 63.2966 3.83087C63.2641 3.69119 63.1618 3.61384 63.0001 3.61302C62.5161 3.61044 62.0318 3.60997 61.5478 3.61396C61.3866 3.61525 61.2872 3.69612 61.2587 3.8365ZM61.2277 7.92639V12.5668C61.2277 12.6124 61.1906 12.6513 61.1393 12.6579C60.2442 12.7744 58.6422 12.8867 58.2361 11.8464C58.1414 11.5809 57.507 9.71365 58.3807 8.31784C58.9115 7.47967 60.3907 7.6366 61.075 7.76137C61.1639 7.77756 61.2277 7.84611 61.2277 7.92639Z" fill="#110B3E"/>
<path fill-rule="evenodd" clip-rule="evenodd" d="M24.8555 12.1482C24.8555 13.1879 25.9279 13.9151 26.9913 14.0305C28.0548 14.1459 29.325 14.1459 31.4433 14.0305C31.7053 13.9892 31.7652 13.929 31.7684 13.697C31.7716 13.4661 31.7705 13.235 31.7693 13.004L31.7691 12.9494C31.7679 12.6834 31.6583 12.5851 31.3588 12.5849C31.1985 12.5848 30.9879 12.5933 30.746 12.6032C29.3847 12.6586 27.0297 12.7543 27.0276 11.5702L27.0273 11.4412C27.0262 10.7759 27.025 10.0864 27.0268 9.75385C27.0272 9.67744 27.099 9.61488 27.1857 9.61488L27.4622 9.61493C28.2186 9.61506 30.2328 9.61542 31.1403 9.61453C31.5213 9.61418 31.6006 9.49645 31.5731 9.09715C31.5621 8.93599 31.5629 8.77355 31.5729 8.61228C31.5998 8.18058 31.5337 8.07013 31.1376 8.07001C30.0051 8.06989 27.7937 8.06989 27.1858 8.07001C27.0987 8.07001 27.029 8.00768 27.029 7.93104L27.0276 6.40634C27.0297 5.22222 29.3847 5.318 30.746 5.37337C30.9879 5.38321 31.1985 5.39177 31.3588 5.39164C31.6583 5.39141 31.7679 5.29317 31.7691 5.0272L31.7693 4.97254C31.7705 4.74156 31.7716 4.51049 31.7684 4.27953C31.7652 4.0476 31.7053 3.98738 31.4433 3.94607C29.325 3.83064 28.0548 3.83064 26.9913 3.94607C25.9279 4.06149 24.8555 4.78869 24.8555 5.82839V12.1482Z" fill="#110B3E"/>
<path fill-rule="evenodd" clip-rule="evenodd" d="M52.2154 13.5549C51.843 13.714 51.5048 13.8932 51.1404 14.0073C50.2933 14.2726 49.4285 14.2966 48.5708 14.0365C47.9175 13.8383 47.5211 13.4141 47.3011 12.8499C46.9066 11.7774 47.0405 8.25127 47.0403 6.6794C47.0402 6.44031 47.1711 6.32587 47.4399 6.32411C47.8696 6.32106 48.2993 6.32106 48.7288 6.32411C48.9713 6.32575 49.0967 6.43456 49.1141 6.64771C49.1176 6.69067 48.9933 10.9851 49.1919 11.9761C49.2974 12.3937 49.6469 12.6364 50.1342 12.6796C50.6691 12.7267 51.5017 12.4866 52.035 12.2246C52.1676 12.1595 52.2196 12.1002 52.2191 11.9652C52.2134 10.2351 52.2134 6.67882 52.2168 6.63116C52.2306 6.44066 52.3498 6.32787 52.5659 6.32505C53.0173 6.31942 53.4688 6.31883 53.9201 6.32517C54.1682 6.32881 54.2821 6.45334 54.2823 6.69666C54.2827 7.94281 54.2211 11.0438 54.2823 13.7419C54.2823 14.0197 54.176 14.114 53.8636 14.1142C53.4557 14.1146 53.0478 14.1146 52.64 14.1142C52.3203 14.114 52.2182 14.0255 52.2154 13.7478C52.2148 13.6822 52.2154 13.6164 52.2154 13.5549Z" fill="#110B3E"/>
<path fill-rule="evenodd" clip-rule="evenodd" d="M33.2231 13.9691C32.9238 13.911 32.8285 13.815 32.8279 13.5461C32.8274 13.3255 32.8273 13.1051 32.8279 12.8847C32.8286 12.6555 32.9236 12.572 33.1877 12.5884C34.813 12.7322 35.7149 12.728 36.2436 12.6951C36.7941 12.6608 36.9755 12.3323 36.873 11.9291C36.7101 11.2786 34.1044 10.4326 33.3618 9.68599C32.5959 8.95134 32.5374 7.68887 33.2641 6.94308C34.0462 6.13378 35.7923 6.22076 36.3787 6.24165C37.0688 6.2663 37.7503 6.35315 38.4239 6.48966C38.7129 6.54823 38.7981 6.63403 38.7995 6.89284C38.8005 7.12289 38.8021 7.35295 38.7989 7.583C38.7955 7.82843 38.692 7.89498 38.4112 7.87796C37.2428 7.67431 35.7998 7.48358 35.1154 7.84451C34.801 8.01024 34.7147 8.36565 34.9858 8.58244C35.983 9.34196 38.9793 9.97778 38.9793 12.0465C38.9793 13.3083 38.0072 13.9502 36.9084 14.1361C36.0941 14.3059 34.4533 14.2282 33.2231 13.9691Z" fill="#110B3E"/>
<path fill-rule="evenodd" clip-rule="evenodd" d="M43.887 7.6976C43.8575 7.6976 43.8342 7.71814 43.834 7.74419C43.83 8.19549 43.7974 11.7233 43.8617 12.4519C43.8867 12.6991 43.9952 12.7872 44.2818 12.7931C44.5698 12.7993 45.3205 12.8058 45.4054 12.8192C45.5237 12.8377 45.6034 12.8957 45.6034 13.0117C45.6034 13.0117 45.6024 13.5963 45.6019 13.8885C45.6018 14.0073 45.5238 14.0857 45.4045 14.106C44.5478 14.204 43.4828 14.2913 42.8612 14.125C42.2469 13.9608 41.9471 13.4933 41.8484 12.9652C41.7032 12.3563 41.744 8.20101 41.7482 7.73703C41.7485 7.71262 41.7276 7.69302 41.7 7.69032C41.3693 7.65722 40.4805 7.64853 40.2782 7.61567C40.0576 7.57975 39.9712 7.48597 39.9675 7.29043C39.9641 7.118 39.9663 6.82715 39.9701 6.65473C39.9751 6.42667 40.0917 6.32549 40.3545 6.32385C40.7293 6.32162 41.4855 6.32056 41.6959 6.31845C41.7255 6.31822 41.7485 6.29709 41.7485 6.27115C41.7482 6.10025 41.7475 5.53322 41.7492 5.27242C41.7505 5.06009 41.8485 4.95199 42.0839 4.91466C42.5322 4.84365 42.9811 4.77499 43.4307 4.71149C43.7456 4.667 43.8342 4.73848 43.8343 5.01924C43.8344 5.36127 43.8382 6.08253 43.8414 6.27725C43.8418 6.30319 43.866 6.32315 43.8954 6.32315H45.0719C45.4742 6.32326 45.5614 6.39979 45.5614 6.75262C45.5614 6.95391 45.563 7.15521 45.561 7.35651C45.5587 7.58715 45.4337 7.69607 45.1684 7.69713C44.8298 7.69853 44.0979 7.69783 43.887 7.6976Z" fill="#110B3E"/>
<path fill-rule="evenodd" clip-rule="evenodd" d="M10.1327 5.04388V5.52876L9.65845 5.28564L10.1327 5.04388Z" fill="white"/>
<path fill-rule="evenodd" clip-rule="evenodd" d="M6.87293 15.2359C7.05543 15.2199 7.23494 15.1702 7.39892 15.0865L8.60364 14.4722L8.60345 14.5187C8.6031 14.5887 8.62443 14.6454 8.66224 14.6885C8.7 14.7315 8.75312 14.7597 8.81397 14.7743C8.93513 14.8034 9.08852 14.7794 9.22351 14.7108L9.37786 14.6325L11.0783 15.5207L7.39649 17.3901C7.1609 17.5097 6.86646 17.3602 6.86646 17.1209V15.9079L6.87099 15.9057L6.87293 15.2359ZM14.0369 1.7984L13.966 7.49144L12.2426 6.61449L12.2658 4.25756C12.268 4.04369 12.0047 3.90892 11.7943 4.01622L9.09246 5.39349C8.81658 5.53407 8.64642 5.79275 8.64498 6.073L8.62263 10.4154L7.26285 11.1073C7.14412 11.1677 7.01435 11.2037 6.88238 11.2156L6.89766 5.22561C6.8984 4.92856 7.07898 4.6542 7.37149 4.50562L8.03677 4.16794L13.3858 1.45197C13.6415 1.32216 13.9524 1.45214 14.0193 1.68641L14.0195 1.68701C14.031 1.72209 14.0374 1.75916 14.0369 1.7984Z" fill="#7763AE"/>
<path fill-rule="evenodd" clip-rule="evenodd" d="M14.4425 16.6476C14.4425 16.6476 14.4425 16.6476 14.4425 16.6476C14.4432 16.6468 14.4439 16.6461 14.4446 16.6454C14.4439 16.6461 14.4432 16.6468 14.4425 16.6476ZM14.651 16.5445L14.5698 16.5857V16.5846L14.5698 16.5846L14.4855 16.6263C14.5224 16.5782 14.5464 16.5229 14.5618 16.4683C14.5663 16.4522 14.5701 16.4363 14.5732 16.4206L14.5735 16.4192L14.6878 10.4178C14.6952 10.0306 14.4632 9.67025 14.0817 9.47657L8.80078 6.78791L8.80477 6.12242C8.80637 5.85282 8.97028 5.60418 9.23553 5.46906L9.47632 5.34625L15.9423 8.63669C16.2565 8.79619 16.3402 9.09348 16.3339 9.42025V15.3471C16.3299 15.562 16.1979 15.7591 15.9864 15.8665L14.6553 16.5424L14.651 16.5445Z" fill="#32C9D3"/>
<path fill-rule="evenodd" clip-rule="evenodd" d="M3.23671 6.04337L4.72355 6.79769L4.71856 6.8797L2.95801 7.77327L2.99337 6.05271C3.06155 6.01086 3.15471 6.00175 3.23671 6.04337Z" fill="#32C9D3"/>
<path fill-rule="evenodd" clip-rule="evenodd" d="M12.0901 10.5548L7.37547 12.9752L8.50633 12.3949L12.0901 10.5548ZM0.218904 9.35026L4.84065 6.98096L4.83595 8.76722L3.56648 9.43505L3.56634 9.43512C3.36922 9.53528 3.36882 9.78549 3.56554 9.88629L6.28768 11.2793C6.59518 11.4366 6.97486 11.4371 7.28282 11.2805L10.3805 9.70602L12.0512 10.5548L7.3656 12.9604C6.98407 13.156 6.51257 13.1569 6.13008 12.9628L0.218829 9.96252C0.106958 9.90575 0.0391805 9.78708 0.03401 9.66396C0.0288583 9.54128 0.0859943 9.41774 0.218833 9.3503L0.218904 9.35026Z" fill="white"/>
<path d="M12.309 10.6832L12.263 10.6548L7.34563 13.1477C6.97662 13.3354 6.522 13.3357 6.15266 13.1488L0.27159 10.1724C0.232339 10.1519 0.0138857 10.0281 0 9.81879V11.4812C0 11.7214 0.146291 11.9431 0.383222 12.0622L6.10652 14.9412C6.5045 15.1414 6.99356 15.1402 7.39012 14.9378L12.5951 12.2902L12.6041 11.1752C12.5978 10.9794 12.4816 10.7955 12.309 10.6832Z" fill="#C6C6C6"/>
<path fill-rule="evenodd" clip-rule="evenodd" d="M12.5384 13.7095C12.5372 13.8426 12.4325 13.9436 12.3031 13.9726L10.9902 13.3061L12.5506 12.4947L12.5384 13.7095Z" fill="#32C9D3"/>
<path fill-rule="evenodd" clip-rule="evenodd" d="M3.71583 9.47403L4.83524 8.90723V10.3607L3.71487 9.80838C3.62768 9.76368 3.58701 9.70114 3.58716 9.64104C3.5873 9.58091 3.62833 9.51846 3.71583 9.47403Z" fill="#C6C6C6"/>
<path fill-rule="evenodd" clip-rule="evenodd" d="M1.47607 3.16453L1.52797 3.13854L2.88897 2.44814C3.15659 2.31235 3.48622 2.31226 3.75394 2.44804L5.56422 3.37003L5.30149 3.50329C5.01951 3.64637 4.84541 3.91073 4.84485 4.19708L4.84329 4.7924L1.73549 3.21413L1.7354 3.21409C1.64065 3.16649 1.54987 3.15808 1.47607 3.16453Z" fill="#32C9D3"/>
<path fill-rule="evenodd" clip-rule="evenodd" d="M6.79011 17.4054C6.78551 17.4004 6.78091 17.395 6.77634 17.3893C6.7809 17.395 6.7855 17.4004 6.7901 17.4054C6.7901 17.4054 6.79011 17.4054 6.79011 17.4054ZM6.58881 17.3226L6.69525 17.3766L5.18452 16.6095L6.58881 17.3226ZM6.72873 11.2265C6.72874 11.2265 6.72874 11.2265 6.72874 11.2265L6.73755 5.2118L6.72873 11.2265ZM6.06374 15.0617L4.95537 14.5042L4.95142 16.2239C4.9511 16.3768 5.04373 16.5183 5.19431 16.5946L6.70504 17.3617L6.70513 17.3617L6.74922 17.3844C6.70603 17.3236 6.67002 17.2309 6.67645 17.0927L6.67646 17.0923L6.6814 15.2129C6.46794 15.2085 6.25549 15.1581 6.06374 15.0617ZM11.1755 0.648854L11.1756 0.648822C11.5152 0.476362 11.9337 0.476464 12.2734 0.64895L13.4785 1.26087L13.4787 1.26099L13.5454 1.29592C13.4977 1.29088 13.4535 1.29275 13.4154 1.29763C13.3746 1.30283 13.3408 1.31148 13.317 1.31884C13.3051 1.32253 13.2957 1.32591 13.2892 1.3284C13.286 1.32964 13.2834 1.33066 13.2817 1.33139L13.2796 1.33226L13.2791 1.33251L13.2788 1.33261L13.2784 1.33283L7.80406 4.10003L7.27098 4.3695C6.92887 4.54323 6.71799 4.86443 6.71798 5.2118L6.7092 11.208C6.5699 11.198 6.43257 11.161 6.3076 11.0971L4.99798 10.4269L5.0148 4.26452C5.01533 3.99044 5.18198 3.73742 5.45188 3.60047L11.1755 0.648854ZM13.2877 1.34796L13.2788 1.33261C13.2788 1.33262 13.2788 1.33263 13.2877 1.34796Z" fill="#442B8C"/>
<path fill-rule="evenodd" clip-rule="evenodd" d="M4.85067 6.71277L3.21535 5.88523C3.05211 5.80238 2.84798 5.90492 2.84612 6.07061L2.82245 7.86751L1.04907 8.76767L1.09565 3.66875C1.10079 3.38623 1.44914 3.21258 1.7274 3.35375L4.85556 4.93879L4.85067 6.71277Z" fill="#74DBE1"/>
<path fill-rule="evenodd" clip-rule="evenodd" d="M14.1528 7.54795L14.1633 5.96808L15.6148 6.73137C15.6003 6.8022 15.5527 6.8683 15.4718 6.90932L14.1528 7.54795Z" fill="#C6C6C6"/>
<path fill-rule="evenodd" clip-rule="evenodd" d="M15.5999 6.52487L14.1467 5.78597L14.1692 3.98779L18.9419 6.43545C19.2293 6.58284 19.2285 6.94813 18.9408 7.0947L18.9407 7.09475L18.8178 7.15717C18.7394 7.19693 18.6275 7.25373 18.4933 7.32188C18.2247 7.45819 17.8666 7.6399 17.5083 7.82155C17.15 8.00319 16.7916 8.18476 16.5225 8.32077C16.3879 8.38878 16.2756 8.44539 16.1969 8.48493C16.1575 8.5047 16.1266 8.52018 16.1054 8.53069C16.0956 8.53556 16.0879 8.53934 16.0825 8.54196L14.3508 7.66339L15.5994 7.03437C15.8226 6.9214 15.8229 6.63833 15.5999 6.52487Z" fill="white"/>
<path fill-rule="evenodd" clip-rule="evenodd" d="M12.6604 10.812C12.5966 10.6953 12.4935 10.596 12.3612 10.529L8.7395 8.67488L8.7479 6.90594L12.7535 8.93451L14.0034 9.57986C14.3447 9.75584 14.5514 10.0786 14.5453 10.4251L14.5228 11.6213L14.4367 16.4009C14.4315 16.6849 14.0793 16.8593 13.7985 16.717L8.93961 14.2544L10.7336 13.3441L12.2117 14.0926C12.4316 14.204 12.707 14.0663 12.7091 13.844L12.7336 11.0989C12.7337 11.0874 12.7335 11.076 12.733 11.0646C12.7297 10.976 12.704 10.89 12.6604 10.812Z" fill="#74DBE1"/>
<path fill-rule="evenodd" clip-rule="evenodd" d="M19.2202 7.10329C19.2293 7.09038 19.2374 7.07709 19.2444 7.06342L19.2542 8.62861C19.2542 8.87485 19.0979 9.02134 18.8925 9.12468L16.4698 10.3432V9.3925C16.4747 9.13055 16.4128 8.8429 16.2241 8.66314L19.0128 7.26281L19.013 7.26274C19.1087 7.21657 19.1765 7.16481 19.2202 7.10329Z" fill="#C6C6C6"/>
<path fill-rule="evenodd" clip-rule="evenodd" d="M12.0259 6.50866L10.29 5.62525L10.2958 4.9441L11.8142 4.17009C11.897 4.12787 11.989 4.12842 12.0652 4.15887L12.0259 6.50866Z" fill="#442B8C"/>
<path fill-rule="evenodd" clip-rule="evenodd" d="M9.12305 14.6191C9.04765 14.6619 8.94953 14.6971 8.85013 14.677C8.7816 14.6631 8.74942 14.6078 8.73505 14.5489C8.72801 14.5201 8.72572 14.492 8.72521 14.4711C8.72496 14.4606 8.72516 14.452 8.72541 14.4461L8.72542 14.4459L8.89104 14.3602L9.22987 14.5442C9.22517 14.5482 9.21953 14.5529 9.21303 14.5581C9.1914 14.5754 9.16044 14.5979 9.12305 14.6191Z" fill="#442B8C"/>
</svg>
